<?xml version="1.0" encoding="UTF-8" standalone="no"?>
<!-- Created with Inkscape (http://www.inkscape.org/) -->

<svg
   width="48"
   height="48"
   viewBox="0 0 12.7 12.7"
   version="1.1"
   id="svg1"
   xmlns="http://www.w3.org/2000/svg"
   xmlns:svg="http://www.w3.org/2000/svg">
  <defs
     id="defs1" />
  <g
     id="layer1">
    <g
       id="g4"
       transform="matrix(3.6031423,0,0,3.6031423,-13.834259,-12.978719)">
      <path
         id="path1"
         style="fill:#026979;fill-opacity:1;stroke:#ffffff;stroke-width:0.0423591;stroke-opacity:0;paint-order:markers stroke fill"
         d="m 5.5863078,3.6269407 a 1.0734758,1.1939442 0 0 0 -0.00835,-3.277e-4 1.0734758,1.1939442 0 0 0 -1.073289,1.1938203 1.0734758,1.1939442 0 0 0 1.073289,1.1938203 1.0734758,1.1939442 0 0 0 0.00835,-6.533e-4 z" />
      <path
         id="path1-0"
         style="fill:#34def9;fill-opacity:1;stroke:#ffffff;stroke-width:0.0381679;stroke-opacity:0;paint-order:markers stroke fill"
         d="M 5.5884034,3.6248127 A 0.96726153,1.0758103 0 0 0 5.5808834,3.6245174 0.96726153,1.0758103 0 0 0 4.6137902,4.700216 0.96726153,1.0758103 0 0 0 5.5808834,5.7759147 0.96726153,1.0758103 0 0 0 5.5884034,5.775326 Z" />
      <path
         id="path5"
         style="fill:#026979;fill-opacity:1;stroke:#ffffff;stroke-width:0.0423591;stroke-opacity:0;paint-order:markers stroke fill"
         d="M 5.61739,7.1018716 A 1.0734758,1.1939442 0 0 0 5.62574,7.1021993 1.0734758,1.1939442 0 0 0 6.699029,5.908379 1.0734758,1.1939442 0 0 0 5.62574,4.7145587 1.0734758,1.1939442 0 0 0 5.61739,4.715212 Z" />
      <path
         id="path6"
         style="fill:#34def9;fill-opacity:1;stroke:#ffffff;stroke-width:0.0381679;stroke-opacity:0;paint-order:markers stroke fill"
         d="m 5.7265114,6.8635651 a 0.96726153,1.0758103 0 0 0 0.00752,2.953e-4 0.96726153,1.0758103 0 0 0 0.9670932,-1.0756986 0.96726153,1.0758103 0 0 0 -0.9670932,-1.0756987 0.96726153,1.0758103 0 0 0 -0.00752,5.887e-4 z" />
    </g>
  </g>
</svg>
